<svg width="191" height="191" viewBox="0 0 191 191" fill="none" xmlns="http://www.w3.org/2000/svg">
<path d="M9.94788 95.4998C9.94788 48.2507 48.2509 9.94775 95.5 9.94775C142.749 9.94775 181.052 48.2507 181.052 95.4998C181.052 142.749 142.749 181.052 95.5 181.052C48.2509 181.052 9.94788 142.749 9.94788 95.4998Z" fill="#D9D9D9"/>
<path d="M69.5405 75.6043C69.5405 61.3117 81.1415 49.7397 95.4331 49.7397C109.725 49.7397 121.326 61.3117 121.326 75.6043C121.326 89.8967 109.725 101.469 95.4331 101.469C81.1415 101.469 69.5405 89.8967 69.5405 75.6043Z" fill="white"/>
<path d="M55.4204 131.118C76.1988 109.417 114.389 108.235 135.617 131.155L137.074 132.611C138.23 133.767 138.861 135.347 138.82 136.981C138.779 138.616 138.069 140.162 136.856 141.259C125.921 151.147 111.408 157.177 95.5008 157.177C79.5937 157.177 65.0808 151.147 54.1453 141.259C52.9326 140.162 52.2229 138.616 52.1818 136.981C52.1408 135.347 52.772 133.767 53.9281 132.611L55.4204 131.118Z" fill="white"/>
</svg>
