<?xml version="1.0" encoding="UTF-8"?>
<!DOCTYPE svg PUBLIC "-//W3C//DTD SVG 1.1//EN" "http://www.w3.org/Graphics/SVG/1.1/DTD/svg11.dtd">
<svg xmlns="http://www.w3.org/2000/svg" version="1.1" width="500px" height="500px" style="shape-rendering:geometricPrecision; text-rendering:geometricPrecision; image-rendering:optimizeQuality; fill-rule:evenodd; clip-rule:evenodd" xmlns:xlink="http://www.w3.org/1999/xlink">
<g><path style="opacity:1" fill="#fefefe" d="M -0.5,-0.5 C 166.167,-0.5 332.833,-0.5 499.5,-0.5C 499.5,67.8333 499.5,136.167 499.5,204.5C 493.367,161.877 472.367,128.711 436.5,105C 428.626,100.724 420.626,97.0578 412.5,94C 454.987,117.115 480.154,152.615 488,200.5C 492.697,251.781 475.863,294.281 437.5,328C 463.531,312.243 481.698,289.743 492,260.5C 495.485,248.901 497.985,237.234 499.5,225.5C 499.5,316.833 499.5,408.167 499.5,499.5C 462.5,499.5 425.5,499.5 388.5,499.5C 397.305,493.692 398.638,486.525 392.5,478C 391.167,477.333 389.833,476.667 388.5,476C 372.167,475.667 355.833,475.333 339.5,475C 332.501,471.667 331.834,467.334 337.5,462C 357.167,461.667 376.833,461.333 396.5,461C 414.05,453.457 421.217,440.291 418,421.5C 413.766,409.266 405.266,402.099 392.5,400C 363.5,399.667 334.5,399.333 305.5,399C 302.651,396.441 301.817,393.274 303,389.5C 303.903,388.299 305.069,387.465 306.5,387C 336.5,386.667 366.5,386.333 396.5,386C 414.495,378.967 421.995,365.8 419,346.5C 417.318,341.5 414.818,337 411.5,333C 466.75,297.289 487.25,247.123 473,182.5C 452.349,123.333 410.682,92.3334 348,89.5C 290.119,92.2702 249.786,120.27 227,173.5C 212.469,218.455 218.802,260.122 246,298.5C 268.955,326.564 298.455,343.064 334.5,348C 352.833,347.976 371.166,347.976 389.5,348C 397.073,352.187 397.406,356.854 390.5,362C 360.5,362.333 330.5,362.667 300.5,363C 280.561,371.383 274.061,385.883 281,406.5C 284.943,414.404 291.109,419.904 299.5,423C 330.119,424.303 360.785,424.97 391.5,425C 395.802,429.797 395.136,433.797 389.5,437C 370.167,437.333 350.833,437.667 331.5,438C 313.455,445.256 306.289,458.423 310,477.5C 314.186,488.857 322.02,496.19 333.5,499.5C 222.167,499.5 110.833,499.5 -0.5,499.5C -0.5,332.833 -0.5,166.167 -0.5,-0.5 Z"/></g>
<g><path style="opacity:1" fill="#0e4291" d="M 351.5,0.5 C 366.17,0.333419 380.837,0.500086 395.5,1C 384.833,15 374.167,29 363.5,43C 335.007,45.2552 309.674,55.2552 287.5,73C 300.846,66.6588 314.846,61.6588 329.5,58C 340.745,56.0309 352.078,55.1975 363.5,55.5C 366.262,63.6973 369.596,71.6973 373.5,79.5C 311.604,72.2865 263.104,94.2865 228,145.5C 222.909,134.983 218.076,124.316 213.5,113.5C 207.223,112.272 200.89,111.439 194.5,111C 193.004,107.851 191.504,104.684 190,101.5C 189.168,112.515 189.334,123.515 190.5,134.5C 193.311,136.618 194.978,139.451 195.5,143C 194.207,146.25 193.207,149.584 192.5,153C 194.136,162.481 194.469,171.981 193.5,181.5C 190.55,179.885 187.884,177.885 185.5,175.5C 182.193,177.64 179.026,179.974 176,182.5C 176.11,171.956 176.943,161.456 178.5,151C 173.905,144.757 174.571,139.257 180.5,134.5C 181.498,126.193 181.831,117.86 181.5,109.5C 171.785,109.291 162.118,108.458 152.5,107C 185.833,73 219.167,39 252.5,5C 285.659,3.53706 318.659,2.03706 351.5,0.5 Z"/></g>
<g><path style="opacity:1" fill="#0e4291" d="M 388.5,499.5 C 370.167,499.5 351.833,499.5 333.5,499.5C 322.02,496.19 314.186,488.857 310,477.5C 306.289,458.423 313.455,445.256 331.5,438C 350.833,437.667 370.167,437.333 389.5,437C 395.136,433.797 395.802,429.797 391.5,425C 360.785,424.97 330.119,424.303 299.5,423C 291.109,419.904 284.943,414.404 281,406.5C 274.061,385.883 280.561,371.383 300.5,363C 330.5,362.667 360.5,362.333 390.5,362C 397.406,356.854 397.073,352.187 389.5,348C 371.166,347.976 352.833,347.976 334.5,348C 298.455,343.064 268.955,326.564 246,298.5C 218.802,260.122 212.469,218.455 227,173.5C 249.786,120.27 290.119,92.2702 348,89.5C 410.682,92.3334 452.349,123.333 473,182.5C 487.25,247.123 466.75,297.289 411.5,333C 414.818,337 417.318,341.5 419,346.5C 421.995,365.8 414.495,378.967 396.5,386C 366.5,386.333 336.5,386.667 306.5,387C 305.069,387.465 303.903,388.299 303,389.5C 301.817,393.274 302.651,396.441 305.5,399C 334.5,399.333 363.5,399.667 392.5,400C 405.266,402.099 413.766,409.266 418,421.5C 421.217,440.291 414.05,453.457 396.5,461C 376.833,461.333 357.167,461.667 337.5,462C 331.834,467.334 332.501,471.667 339.5,475C 355.833,475.333 372.167,475.667 388.5,476C 389.833,476.667 391.167,477.333 392.5,478C 398.638,486.525 397.305,493.692 388.5,499.5 Z"/></g>
<g><path style="opacity:1" fill="#f9ab30" d="M 499.5,204.5 C 499.5,211.5 499.5,218.5 499.5,225.5C 497.985,237.234 495.485,248.901 492,260.5C 481.698,289.743 463.531,312.243 437.5,328C 475.863,294.281 492.697,251.781 488,200.5C 480.154,152.615 454.987,117.115 412.5,94C 420.626,97.0578 428.626,100.724 436.5,105C 472.367,128.711 493.367,161.877 499.5,204.5 Z"/></g>
<g><path style="opacity:1" fill="#f8a725" d="M 406.5,305.5 C 397.989,304.746 389.656,303.079 381.5,300.5C 353.109,316.797 327.443,313.297 304.5,290C 304.728,289.601 305.062,289.435 305.5,289.5C 337.39,306.64 368.39,305.14 398.5,285C 402.849,280.93 407.016,276.764 411,272.5C 414.07,262.899 410.57,258.733 400.5,260C 385.215,277.599 365.882,285.766 342.5,284.5C 311.86,265.692 287.36,240.692 269,209.5C 262.693,198.404 257.86,186.737 254.5,174.5C 268.89,144.624 292.224,125.457 324.5,117C 369.49,108.989 405.99,122.823 434,158.5C 454.564,190.243 458.23,223.91 445,259.5C 436.616,278.704 423.783,294.037 406.5,305.5 Z"/></g>
<g><path style="opacity:1" fill="#dc8c12" d="M 254.5,174.5 C 257.86,186.737 262.693,198.404 269,209.5C 287.36,240.692 311.86,265.692 342.5,284.5C 324.909,282.204 310.242,274.37 298.5,261C 294.085,258.655 290.085,259.155 286.5,262.5C 284.775,264.957 284.275,267.623 285,270.5C 290.776,278.114 297.609,284.447 305.5,289.5C 305.062,289.435 304.728,289.601 304.5,290C 327.443,313.297 353.109,316.797 381.5,300.5C 389.656,303.079 397.989,304.746 406.5,305.5C 391.534,315.769 374.867,321.602 356.5,323C 311.766,324.553 278.266,306.053 256,267.5C 244.037,242.795 241.37,217.128 248,190.5C 249.9,184.946 252.066,179.613 254.5,174.5 Z"/></g>
<g><path style="opacity:1" fill="#15428f" d="M 342.5,284.5 C 365.882,285.766 385.215,277.599 400.5,260C 410.57,258.733 414.07,262.899 411,272.5C 407.016,276.764 402.849,280.93 398.5,285C 368.39,305.14 337.39,306.64 305.5,289.5C 297.609,284.447 290.776,278.114 285,270.5C 284.275,267.623 284.775,264.957 286.5,262.5C 290.085,259.155 294.085,258.655 298.5,261C 310.242,274.37 324.909,282.204 342.5,284.5 Z"/></g>
</svg>
